<?xml version="1.0" standalone="no"?>
<!DOCTYPE svg PUBLIC "-//W3C//DTD SVG 20010904//EN"
 "http://www.w3.org/TR/2001/REC-SVG-20010904/DTD/svg10.dtd">
<svg version="1.0" xmlns="http://www.w3.org/2000/svg"
 width="720.000000pt" height="275.000000pt" viewBox="0 0 720.000000 275.000000"
 preserveAspectRatio="xMidYMid meet">

<g transform="translate(0.000000,275.000000) scale(0.100000,-0.100000)"
fill="#000000" stroke="none">
<path d="M798 2268 c-240 -343 -421 -702 -507 -1003 -27 -98 -61 -267 -61
-309 0 -44 -8 -45 -46 -5 -58 61 -62 50 -17 -39 24 -48 47 -105 50 -126 l6
-39 -52 6 c-56 7 -60 -3 -10 -29 l30 -15 -61 -31 c-34 -16 -60 -32 -58 -34 2
-2 26 3 53 11 47 15 105 20 105 10 0 -2 -31 -98 -69 -212 -114 -342 -140 -432
-125 -426 15 6 28 38 89 236 206 662 535 1447 799 1906 42 73 75 135 74 137
-7 6 -118 54 -127 54 -4 0 -37 -42 -73 -92z"/>
<path d="M993 2237 c-185 -293 -433 -840 -637 -1405 l-67 -184 37 -40 c29 -32
35 -36 29 -17 -4 13 -14 33 -21 44 -8 11 -14 22 -14 26 0 3 35 9 79 12 108 7
208 56 241 118 10 17 8 17 -26 3 -20 -8 -46 -14 -58 -12 -17 2 -10 9 34 34 59
34 118 93 145 145 l17 31 -39 -30 c-52 -43 -113 -62 -192 -62 l-66 0 70 25
c183 65 315 206 414 445 55 134 57 143 34 136 -10 -3 -31 -8 -48 -11 -30 -6
-30 -6 6 14 37 20 109 93 128 130 13 24 9 26 -21 10 -11 -6 -35 -15 -52 -19
-26 -7 -28 -7 -12 3 68 44 99 73 126 119 31 56 73 158 67 164 -2 3 -23 -3 -47
-11 -66 -23 -78 -18 -29 14 24 15 54 39 66 53 34 36 114 181 105 190 -4 4 -60
32 -125 62 l-117 55 -27 -42z"/>
<path d="M4640 2010 c-117 -16 -202 -63 -291 -158 -209 -223 -198 -575 25
-798 48 -48 93 -82 141 -105 69 -34 71 -34 205 -34 l135 0 80 38 c81 39 158
103 196 164 24 38 22 42 -24 66 l-35 19 -73 -75 c-92 -92 -152 -119 -274 -119
-111 0 -177 26 -261 104 -117 110 -171 268 -147 428 13 82 66 198 113 249 45
47 124 99 172 112 57 15 184 13 240 -4 62 -19 137 -75 168 -126 28 -46 31 -47
68 -26 60 32 59 30 20 87 -67 97 -171 160 -294 178 -76 11 -85 11 -164 0z"/>
<path d="M1646 1653 c-83 -197 -185 -441 -228 -542 -43 -102 -78 -189 -78
-193 0 -5 26 -8 57 -6 l57 3 71 170 71 170 239 3 c131 1 242 -1 247 -6 5 -5
40 -83 77 -173 l69 -164 61 -3 61 -3 -19 48 c-11 26 -81 194 -156 373 -76 179
-170 404 -210 500 l-73 175 -48 3 -49 2 -149 -357z m313 -51 c56 -140 100
-256 98 -258 -2 -2 -101 -3 -220 -2 l-215 3 102 245 c56 135 105 254 109 264
5 11 11 15 16 10 4 -5 54 -123 110 -262z"/>
<path d="M2470 1461 l0 -551 55 0 55 0 0 205 0 205 213 0 c203 0 214 1 264 24
67 31 123 89 159 162 26 53 29 69 29 154 0 82 -4 103 -26 151 -35 73 -85 128
-151 165 l-53 29 -272 3 -273 3 0 -550z m545 426 c49 -28 101 -95 116 -150 24
-88 -4 -197 -67 -261 -51 -51 -76 -56 -289 -56 l-195 0 0 245 0 245 198 0
c185 0 199 -2 237 -23z"/>
<path d="M3633 1973 c-8 -21 -103 -247 -210 -501 -107 -255 -203 -486 -213
-513 l-20 -49 58 0 59 0 69 169 69 169 140 7 c77 3 189 5 248 3 l109 -3 67
-160 c37 -88 70 -166 75 -173 4 -7 29 -12 62 -12 52 0 55 1 48 22 -3 11 -97
238 -208 502 -112 265 -211 502 -222 528 -19 48 -19 48 -67 48 -46 0 -49 -2
-64 -37z m176 -372 c56 -139 100 -255 98 -257 -2 -3 -101 -3 -220 -2 l-216 3
40 95 c134 322 182 430 189 423 4 -4 53 -122 109 -262z"/>
<path d="M5300 1460 l0 -550 55 0 55 0 0 255 0 255 325 0 325 0 0 -255 0 -255
55 0 55 0 0 550 0 550 -55 0 -55 0 0 -245 0 -245 -325 0 -325 0 0 245 0 245
-55 0 -55 0 0 -550z"/>
<path d="M6420 1460 l0 -550 370 0 370 0 0 50 0 50 -315 0 -315 0 2 208 3 207
268 3 267 2 0 45 0 45 -270 0 -270 0 0 195 0 195 310 0 310 0 0 50 0 50 -365
0 -365 0 0 -550z"/>
<path d="M2805 775 c-22 -8 -41 -15 -42 -15 -1 0 -10 -14 -19 -31 -31 -62 6
-119 95 -145 31 -9 62 -21 69 -26 17 -15 15 -55 -4 -62 -31 -12 -90 -5 -118
13 -32 22 -40 20 -56 -10 -10 -17 -5 -22 42 -44 62 -29 106 -31 154 -9 41 20
56 44 56 91 0 48 -31 75 -114 102 -69 23 -85 39 -68 72 13 23 81 26 120 5 21
-12 26 -12 37 3 18 23 16 29 -14 44 -45 23 -95 27 -138 12z"/>
<path d="M1310 605 l0 -175 25 0 c24 0 25 2 25 70 l0 70 85 0 84 0 3 -67 c3
-66 4 -68 31 -71 l27 -3 0 176 0 176 -27 -3 c-27 -3 -28 -5 -31 -75 l-3 -73
-84 0 -85 0 0 75 c0 73 -1 75 -25 75 l-25 0 0 -175z"/>
<path d="M3690 777 c0 -2 31 -80 69 -173 l69 -169 33 0 33 0 68 170 c37 93 68
171 68 173 0 2 -15 2 -32 0 -32 -3 -34 -7 -83 -125 -27 -68 -52 -123 -55 -123
-3 0 -28 55 -55 123 -49 118 -51 122 -83 125 -17 2 -32 1 -32 -1z"/>
<path d="M5675 761 c-48 -22 -69 -44 -90 -94 -21 -50 -19 -93 6 -144 54 -112
229 -127 305 -27 50 65 44 162 -13 224 -54 60 -133 76 -208 41z m119 -45 c123
-52 89 -236 -44 -236 -65 0 -120 59 -120 127 0 40 35 92 73 108 41 18 50 18
91 1z"/>
<path d="M6010 755 c0 -23 3 -25 50 -25 l50 0 0 -108 c0 -71 -4 -112 -12 -120
-16 -16 -59 -15 -85 3 -19 13 -22 13 -37 -9 -15 -23 -14 -25 12 -42 16 -10 47
-18 75 -18 43 -1 52 3 78 32 l29 32 0 140 0 140 -80 0 c-79 0 -80 0 -80 -25z"/>
<path d="M6665 761 c-48 -22 -69 -44 -90 -94 -30 -73 -6 -163 56 -208 43 -30
141 -39 186 -16 44 23 55 40 40 61 -13 17 -15 17 -52 -3 -22 -12 -50 -21 -63
-21 -58 0 -122 64 -122 123 0 92 109 149 191 100 27 -16 30 -16 46 -1 14 15
14 19 2 34 -37 44 -127 56 -194 25z"/>
<path d="M1650 745 c0 -24 3 -25 55 -25 l55 0 0 -145 0 -145 30 0 30 0 0 145
0 145 50 0 c47 0 50 2 50 25 l0 25 -135 0 -135 0 0 -25z"/>
<path d="M1950 745 c0 -23 3 -25 50 -25 l50 0 0 -145 0 -145 30 0 30 0 0 145
0 145 50 0 c47 0 50 2 50 25 l0 25 -130 0 -130 0 0 -25z"/>
<path d="M2280 599 l0 -170 28 3 c25 3 27 7 30 51 l3 47 42 0 c123 0 184 64
156 164 -16 58 -55 76 -166 76 l-93 0 0 -171z m191 100 c16 -16 20 -28 15 -52
-10 -48 -23 -57 -87 -57 l-59 0 0 65 0 65 55 0 c43 0 60 -5 76 -21z"/>
<path d="M3062 603 l3 -168 123 -3 122 -3 0 31 0 30 -95 0 -95 0 0 45 0 45 85
0 c84 0 85 0 85 25 0 25 -1 25 -85 25 l-85 0 0 45 0 45 95 0 c95 0 95 0 95 25
l0 25 -125 0 -125 0 2 -167z"/>
<path d="M3380 600 l0 -170 30 0 30 0 0 60 0 60 38 0 c34 -1 41 -6 79 -60 39
-54 46 -60 79 -60 l36 0 -46 64 c-43 60 -45 65 -26 71 32 10 52 49 52 102 0
41 -5 52 -31 75 -30 27 -36 28 -136 28 l-105 0 0 -170z m200 104 c20 -23 16
-75 -5 -90 -11 -8 -44 -14 -77 -14 l-58 0 0 60 0 60 64 0 c45 0 67 -4 76 -16z"/>
<path d="M4080 600 l0 -171 123 3 122 3 0 25 c0 25 -1 25 -92 28 l-93 3 0 44
0 45 80 0 c79 0 80 0 80 25 0 25 -1 25 -80 25 l-80 0 0 45 0 45 90 0 c89 0 90
0 90 25 l0 25 -120 0 -120 0 0 -170z"/>
<path d="M4400 600 l0 -170 30 0 30 0 0 60 0 60 38 0 c34 -1 41 -6 79 -60 39
-54 46 -60 79 -60 39 0 40 -3 -15 74 l-35 49 26 19 c37 26 52 76 38 127 -16
59 -45 71 -170 71 l-100 0 0 -170z m204 98 c40 -56 3 -98 -84 -98 l-60 0 0 60
0 60 64 0 c56 0 67 -3 80 -22z"/>
<path d="M4892 603 l3 -168 28 -3 c26 -3 27 -2 27 47 l0 51 43 0 c54 0 109 16
137 38 28 22 38 98 20 142 -20 47 -55 60 -165 60 l-95 0 2 -167z m186 101 c15
-10 22 -25 22 -49 0 -50 -21 -65 -91 -65 l-59 0 0 65 0 65 53 0 c31 0 61 -6
75 -16z"/>
<path d="M5232 603 l3 -168 27 -3 c26 -3 27 -2 30 55 l3 58 36 3 c33 3 38 -1
78 -58 38 -54 46 -60 77 -60 19 0 34 2 34 5 0 3 -18 30 -41 60 l-41 54 32 28
c56 50 50 147 -11 178 -19 10 -60 15 -129 15 l-100 0 2 -167z m202 101 c22
-21 20 -60 -4 -84 -16 -16 -33 -20 -80 -20 l-60 0 0 60 0 60 64 0 c45 0 69 -5
80 -16z"/>
<path d="M6260 600 l0 -170 126 0 125 0 -3 28 -3 27 -92 3 -93 3 0 44 0 45 80
0 c79 0 80 0 80 25 0 25 -1 25 -80 25 l-80 0 0 45 0 45 90 0 c89 0 90 0 90 25
l0 25 -120 0 -120 0 0 -170z"/>
<path d="M6910 745 c0 -24 3 -25 55 -25 l55 0 0 -145 0 -145 30 0 30 0 0 145
0 145 50 0 c47 0 50 2 50 25 l0 25 -135 0 -135 0 0 -25z"/>
</g>
</svg>
