<?xml version="1.0" encoding="UTF-8"?>
<!DOCTYPE svg PUBLIC "-//W3C//DTD SVG 1.1//EN" "http://www.w3.org/Graphics/SVG/1.1/DTD/svg11.dtd">
<svg xmlns="http://www.w3.org/2000/svg" version="1.1" width="256px" height="256px" style="shape-rendering:geometricPrecision; text-rendering:geometricPrecision; image-rendering:optimizeQuality; fill-rule:evenodd; clip-rule:evenodd" xmlns:xlink="http://www.w3.org/1999/xlink">
<g><path style="opacity:0.016" fill="#187dc2" d="M 118.5,67.5 C 124.319,66.3475 130.319,66.1808 136.5,67C 130.509,67.4995 124.509,67.6662 118.5,67.5 Z"/></g>
<g><path style="opacity:0.012" fill="#187dc2" d="M 117.5,68.5 C 116.127,68.6567 114.793,68.49 113.5,68C 115.066,67.235 116.399,67.4017 117.5,68.5 Z"/></g>
<g><path style="opacity:0.009" fill="#187dc2" d="M 138.5,68.5 C 139.251,67.4265 140.251,67.2599 141.5,68C 140.552,68.4828 139.552,68.6495 138.5,68.5 Z"/></g>
<g><path style="opacity:0.012" fill="#197dc3" d="M 110.5,69.5 C 110.897,68.475 111.563,68.3083 112.5,69C 111.906,69.4643 111.239,69.631 110.5,69.5 Z"/></g>
<g><path style="opacity:0.984" fill="#187ec3" d="M 117.5,68.5 C 126.932,68.1045 136.266,68.7711 145.5,70.5C 159.418,75.9558 170.418,84.9558 178.5,97.5C 178.427,99.0269 179.094,100.027 180.5,100.5C 181.092,103.691 182.259,106.691 184,109.5C 184.926,107.308 186.093,105.308 187.5,103.5C 188.906,103.027 189.573,102.027 189.5,100.5C 190.5,100.167 191.167,99.5 191.5,98.5C 193.027,98.573 194.027,97.9063 194.5,96.5C 198.74,93.8816 203.074,91.5482 207.5,89.5C 215.244,88.041 222.911,88.3744 230.5,90.5C 241.5,95.5 249.5,103.5 254.5,114.5C 254.232,116.099 254.566,117.432 255.5,118.5C 255.5,124.5 255.5,130.5 255.5,136.5C 254.566,137.568 254.232,138.901 254.5,140.5C 253.662,140.842 253.328,141.508 253.5,142.5C 252.662,142.842 252.328,143.508 252.5,144.5C 251.662,144.842 251.328,145.508 251.5,146.5C 250.662,146.842 250.328,147.508 250.5,148.5C 249.833,148.5 249.5,148.833 249.5,149.5C 248.662,149.842 248.328,150.508 248.5,151.5C 247.833,151.5 247.5,151.833 247.5,152.5C 246.833,152.5 246.5,152.833 246.5,153.5C 245.833,153.5 245.5,153.833 245.5,154.5C 244.833,154.5 244.5,154.833 244.5,155.5C 243.833,155.5 243.5,155.833 243.5,156.5C 242.833,156.5 242.5,156.833 242.5,157.5C 241.833,157.5 241.5,157.833 241.5,158.5C 240.508,158.328 239.842,158.662 239.5,159.5C 238.833,159.5 238.5,159.833 238.5,160.5C 237.508,160.328 236.842,160.662 236.5,161.5C 234.181,161.992 232.181,162.992 230.5,164.5C 229.209,164.263 228.209,164.596 227.5,165.5C 220.833,166.833 214.167,166.833 207.5,165.5C 206.791,164.596 205.791,164.263 204.5,164.5C 201.669,162.583 198.669,160.917 195.5,159.5C 195.5,158.833 195.167,158.5 194.5,158.5C 194.027,157.094 193.027,156.427 191.5,156.5C 191.167,155.5 190.5,154.833 189.5,154.5C 189.573,152.973 188.906,151.973 187.5,151.5C 186.488,150.128 185.488,148.795 184.5,147.5C 184.167,144.833 183.833,144.833 183.5,147.5C 182.662,147.842 182.328,148.508 182.5,149.5C 181.069,150.78 180.402,152.447 180.5,154.5C 179.094,154.973 178.427,155.973 178.5,157.5C 177.662,157.842 177.328,158.508 177.5,159.5C 176.833,159.5 176.5,159.833 176.5,160.5C 175.662,160.842 175.328,161.508 175.5,162.5C 174.833,162.5 174.5,162.833 174.5,163.5C 173.833,163.5 173.5,163.833 173.5,164.5C 172.662,164.842 172.328,165.508 172.5,166.5C 171.833,166.5 171.5,166.833 171.5,167.5C 170.833,167.5 170.5,167.833 170.5,168.5C 169.833,168.5 169.5,168.833 169.5,169.5C 168.833,169.5 168.5,169.833 168.5,170.5C 167.833,170.5 167.5,170.833 167.5,171.5C 166.833,171.5 166.5,171.833 166.5,172.5C 165.833,172.5 165.5,172.833 165.5,173.5C 164.508,173.328 163.842,173.662 163.5,174.5C 162.833,174.5 162.5,174.833 162.5,175.5C 161.833,175.5 161.5,175.833 161.5,176.5C 160.508,176.328 159.842,176.662 159.5,177.5C 158.833,177.5 158.5,177.833 158.5,178.5C 157.508,178.328 156.842,178.662 156.5,179.5C 155.508,179.328 154.842,179.662 154.5,180.5C 153.508,180.328 152.842,180.662 152.5,181.5C 151.508,181.328 150.842,181.662 150.5,182.5C 149.508,182.328 148.842,182.662 148.5,183.5C 147.209,183.263 146.209,183.596 145.5,184.5C 144.209,184.263 143.209,184.596 142.5,185.5C 134.195,186.332 125.862,186.665 117.5,186.5C 115.095,185.232 112.428,184.565 109.5,184.5C 108.22,183.069 106.553,182.402 104.5,182.5C 92.5955,175.93 82.9289,166.93 75.5,155.5C 75.6716,154.508 75.3382,153.842 74.5,153.5C 74.2041,151.597 73.5375,149.93 72.5,148.5C 72.719,147.325 72.3857,146.325 71.5,145.5C 70.7025,145.957 70.3691,146.624 70.5,147.5C 69.6618,147.842 69.3284,148.508 69.5,149.5C 68.8333,149.5 68.5,149.833 68.5,150.5C 67.8333,150.5 67.5,150.833 67.5,151.5C 66.6618,151.842 66.3284,152.508 66.5,153.5C 65.8333,153.5 65.5,153.833 65.5,154.5C 64.8333,154.5 64.5,154.833 64.5,155.5C 63.8333,155.5 63.5,155.833 63.5,156.5C 61.9731,156.427 60.9731,157.094 60.5,158.5C 59.8333,158.5 59.5,158.833 59.5,159.5C 58.8333,159.5 58.5,159.833 58.5,160.5C 57.5084,160.328 56.8417,160.662 56.5,161.5C 55.5084,161.328 54.8417,161.662 54.5,162.5C 53.5084,162.328 52.8417,162.662 52.5,163.5C 51.5084,163.328 50.8417,163.662 50.5,164.5C 49.209,164.263 48.209,164.596 47.5,165.5C 40.8333,166.833 34.1667,166.833 27.5,165.5C 24.6865,163.93 21.6865,162.597 18.5,161.5C 13.5399,158.208 9.20661,154.208 5.5,149.5C 5.06795,148.29 4.40128,147.29 3.5,146.5C 2.11965,143.089 0.786316,139.756 -0.5,136.5C -0.5,130.5 -0.5,124.5 -0.5,118.5C 7.61251,96.099 23.6125,86.4324 47.5,89.5C 50.3135,91.0697 53.3135,92.4031 56.5,93.5C 57.795,94.4884 59.1283,95.4884 60.5,96.5C 60.9731,97.9063 61.9731,98.573 63.5,98.5C 65.6029,101.72 67.9362,104.72 70.5,107.5C 70.3691,108.376 70.7025,109.043 71.5,109.5C 72.3857,108.675 72.719,107.675 72.5,106.5C 80.2256,89.7746 92.5589,77.7746 109.5,70.5C 112.428,70.4349 115.095,69.7682 117.5,68.5 Z M 136.5,93.5 C 137.791,93.2627 138.791,93.596 139.5,94.5C 140.791,94.2627 141.791,94.596 142.5,95.5C 141.761,95.369 141.094,95.5357 140.5,96C 149.333,99.5 155.5,105.667 159,114.5C 159.464,113.906 159.631,113.239 159.5,112.5C 160.404,113.209 160.737,114.209 160.5,115.5C 162.046,119.232 163.046,123.232 163.5,127.5C 163.046,131.768 162.046,135.768 160.5,139.5C 160.737,140.791 160.404,141.791 159.5,142.5C 159.631,141.761 159.464,141.094 159,140.5C 155.5,149.333 149.333,155.5 140.5,159C 141.094,159.464 141.761,159.631 142.5,159.5C 141.791,160.404 140.791,160.737 139.5,160.5C 138.791,161.404 137.791,161.737 136.5,161.5C 129.412,163.955 122.412,163.622 115.5,160.5C 112.911,160.539 110.911,159.539 109.5,157.5C 109.938,157.565 110.272,157.399 110.5,157C 109.307,155.905 107.973,155.072 106.5,154.5C 106.5,153.833 106.167,153.5 105.5,153.5C 104.833,152.167 103.833,151.167 102.5,150.5C 102.5,149.833 102.167,149.5 101.5,149.5C 99.4251,146.354 97.5918,143.021 96,139.5C 95.5357,140.094 95.369,140.761 95.5,141.5C 94.596,140.791 94.2627,139.791 94.5,138.5C 93.0296,135.114 92.3629,131.447 92.5,127.5C 92.3629,123.553 93.0296,119.886 94.5,116.5C 94.3505,117.552 94.5172,118.552 95,119.5C 96.3768,114.416 98.5435,109.749 101.5,105.5C 102.167,105.5 102.5,105.167 102.5,104.5C 103.833,103.833 104.833,102.833 105.5,101.5C 106.167,101.5 106.5,101.167 106.5,100.5C 107.473,100.013 108.473,99.5133 109.5,99C 110.738,98.31 110.738,97.81 109.5,97.5C 110.911,95.461 112.911,94.461 115.5,94.5C 122.412,91.3779 129.412,91.0446 136.5,93.5 Z M 60.5,96.5 C 62.0269,96.427 63.0269,97.0937 63.5,98.5C 61.9731,98.573 60.9731,97.9063 60.5,96.5 Z M 194.5,96.5 C 194.027,97.9063 193.027,98.573 191.5,98.5C 191.973,97.0937 192.973,96.427 194.5,96.5 Z M 106.5,99.5 C 106.5,99.8333 106.5,100.167 106.5,100.5C 105.833,100.5 105.5,100.833 105.5,101.5C 104.833,101.5 104.167,101.5 103.5,101.5C 103.973,100.094 104.973,99.427 106.5,99.5 Z M 189.5,100.5 C 189.573,102.027 188.906,103.027 187.5,103.5C 187.427,101.973 188.094,100.973 189.5,100.5 Z M 102.5,102.5 C 102.5,103.167 102.5,103.833 102.5,104.5C 101.833,104.5 101.5,104.833 101.5,105.5C 101.167,105.5 100.833,105.5 100.5,105.5C 100.427,103.973 101.094,102.973 102.5,102.5 Z M 72.5,106.5 C 72.719,107.675 72.3857,108.675 71.5,109.5C 70.7025,109.043 70.3691,108.376 70.5,107.5C 71.1667,107.167 71.8333,106.833 72.5,106.5 Z M 30.5,114.5 C 31.209,113.596 32.209,113.263 33.5,113.5C 36.1667,114.833 38.8333,114.833 41.5,113.5C 42.791,113.263 43.791,113.596 44.5,114.5C 41.8333,114.833 41.8333,115.167 44.5,115.5C 44.5,116.167 44.8333,116.5 45.5,116.5C 46.8014,117.64 47.9681,118.973 49,120.5C 49.3988,120.272 49.5654,119.938 49.5,119.5C 51.2132,120.635 51.8799,122.302 51.5,124.5C 50.1667,126.5 50.1667,128.5 51.5,130.5C 51.8799,132.698 51.2132,134.365 49.5,135.5C 49.5654,135.062 49.3988,134.728 49,134.5C 47.9681,136.027 46.8014,137.36 45.5,138.5C 44.8333,138.5 44.5,138.833 44.5,139.5C 41.8333,139.833 41.8333,140.167 44.5,140.5C 43.791,141.404 42.791,141.737 41.5,141.5C 40.2067,142.158 38.7067,142.492 37,142.5C 34.4563,142.664 32.2897,141.997 30.5,140.5C 31.2389,140.631 31.9056,140.464 32.5,140C 28.6667,138.833 26.1667,136.333 25,132.5C 24.5357,133.094 24.369,133.761 24.5,134.5C 23.596,133.791 23.2627,132.791 23.5,131.5C 24.8333,128.833 24.8333,126.167 23.5,123.5C 23.2627,122.209 23.596,121.209 24.5,120.5C 24.369,121.239 24.5357,121.906 25,122.5C 26.1667,118.667 28.6667,116.167 32.5,115C 31.9056,114.536 31.2389,114.369 30.5,114.5 Z M 210.5,114.5 C 211.209,113.596 212.209,113.263 213.5,113.5C 216.167,114.833 218.833,114.833 221.5,113.5C 222.791,113.263 223.791,113.596 224.5,114.5C 223.761,114.369 223.094,114.536 222.5,115C 226.333,116.167 228.833,118.667 230,122.5C 230.464,121.906 230.631,121.239 230.5,120.5C 231.404,121.209 231.737,122.209 231.5,123.5C 230.167,126.167 230.167,128.833 231.5,131.5C 231.737,132.791 231.404,133.791 230.5,134.5C 230.631,133.761 230.464,133.094 230,132.5C 228.833,136.333 226.333,138.833 222.5,140C 223.094,140.464 223.761,140.631 224.5,140.5C 223.791,141.404 222.791,141.737 221.5,141.5C 218.833,140.167 216.167,140.167 213.5,141.5C 212.209,141.737 211.209,141.404 210.5,140.5C 213.167,140.167 213.167,139.833 210.5,139.5C 210.5,138.833 210.167,138.5 209.5,138.5C 208.199,137.36 207.032,136.027 206,134.5C 205.601,134.728 205.435,135.062 205.5,135.5C 203.348,133.393 202.348,130.726 202.5,127.5C 202.348,124.274 203.348,121.607 205.5,119.5C 205.435,119.938 205.601,120.272 206,120.5C 207.032,118.973 208.199,117.64 209.5,116.5C 210.167,116.5 210.5,116.167 210.5,115.5C 213.167,115.167 213.167,114.833 210.5,114.5 Z M 44.5,115.5 C 44.5,115.167 44.5,114.833 44.5,114.5C 46.0269,114.427 47.0269,115.094 47.5,116.5C 46.8333,116.5 46.1667,116.5 45.5,116.5C 44.8333,116.5 44.5,116.167 44.5,115.5 Z M 210.5,114.5 C 210.5,114.833 210.5,115.167 210.5,115.5C 209.833,115.5 209.5,115.833 209.5,116.5C 208.833,116.5 208.167,116.5 207.5,116.5C 207.973,115.094 208.973,114.427 210.5,114.5 Z M 45.5,138.5 C 46.1667,138.5 46.8333,138.5 47.5,138.5C 47.0269,139.906 46.0269,140.573 44.5,140.5C 44.5,140.167 44.5,139.833 44.5,139.5C 45.1667,139.5 45.5,139.167 45.5,138.5 Z M 207.5,138.5 C 208.167,138.5 208.833,138.5 209.5,138.5C 210.167,138.5 210.5,138.833 210.5,139.5C 210.5,139.833 210.5,140.167 210.5,140.5C 208.973,140.573 207.973,139.906 207.5,138.5 Z M 72.5,148.5 C 71.8333,148.167 71.1667,147.833 70.5,147.5C 70.3691,146.624 70.7025,145.957 71.5,145.5C 72.3857,146.325 72.719,147.325 72.5,148.5 Z M 100.5,149.5 C 100.833,149.5 101.167,149.5 101.5,149.5C 102.167,149.5 102.5,149.833 102.5,150.5C 102.5,151.167 102.5,151.833 102.5,152.5C 101.094,152.027 100.427,151.027 100.5,149.5 Z M 187.5,151.5 C 188.906,151.973 189.573,152.973 189.5,154.5C 188.094,154.027 187.427,153.027 187.5,151.5 Z M 103.5,153.5 C 104.167,153.5 104.833,153.5 105.5,153.5C 106.167,153.5 106.5,153.833 106.5,154.5C 106.5,154.833 106.5,155.167 106.5,155.5C 104.973,155.573 103.973,154.906 103.5,153.5 Z M 63.5,156.5 C 63.0269,157.906 62.0269,158.573 60.5,158.5C 60.9731,157.094 61.9731,156.427 63.5,156.5 Z M 191.5,156.5 C 193.027,156.427 194.027,157.094 194.5,158.5C 192.973,158.573 191.973,157.906 191.5,156.5 Z"/></g>
<g><path style="opacity:0.012" fill="#187dc2" d="M 109.5,70.5 C 108.761,70.631 108.094,70.4643 107.5,70C 108.437,69.3083 109.103,69.475 109.5,70.5 Z"/></g>
<g><path style="opacity:0.012" fill="#187dc2" d="M 145.5,70.5 C 145.897,69.475 146.563,69.3083 147.5,70C 146.906,70.4643 146.239,70.631 145.5,70.5 Z"/></g>
<g><path style="opacity:0.012" fill="#197dc3" d="M 105.5,70.5 C 106.833,71.1667 106.833,71.1667 105.5,70.5 Z"/></g>
<g><path style="opacity:0.005" fill="#187dc2" d="M 34.5,87.5 C 36.2884,86.3775 38.2884,86.2109 40.5,87C 38.5273,87.4955 36.5273,87.6621 34.5,87.5 Z"/></g>
<g><path style="opacity:0.005" fill="#187dc2" d="M 214.5,87.5 C 216.288,86.3775 218.288,86.2109 220.5,87C 218.527,87.4955 216.527,87.6621 214.5,87.5 Z"/></g>
<g><path style="opacity:0.012" fill="#187dc2" d="M 28.5,88.5 C 29.2506,87.4265 30.2506,87.2599 31.5,88C 30.552,88.4828 29.552,88.6495 28.5,88.5 Z"/></g>
<g><path style="opacity:0.009" fill="#187dc2" d="M 43.5,88.5 C 44.2506,87.4265 45.2506,87.2599 46.5,88C 45.552,88.4828 44.552,88.6495 43.5,88.5 Z"/></g>
<g><path style="opacity:0.009" fill="#197ec2" d="M 208.5,88.5 C 209.251,87.4265 210.251,87.2599 211.5,88C 210.552,88.4828 209.552,88.6495 208.5,88.5 Z"/></g>
<g><path style="opacity:0.016" fill="#187ec2" d="M 223.5,88.5 C 224.251,87.4265 225.251,87.2599 226.5,88C 225.552,88.4828 224.552,88.6495 223.5,88.5 Z"/></g>
<g><path style="opacity:0.012" fill="#187ec2" d="M 47.5,89.5 C 47.8966,88.475 48.5632,88.3083 49.5,89C 48.9056,89.4643 48.2389,89.631 47.5,89.5 Z"/></g>
<g><path style="opacity:0.012" fill="#187dc3" d="M 207.5,89.5 C 206.761,89.631 206.094,89.4643 205.5,89C 206.437,88.3083 207.103,88.475 207.5,89.5 Z"/></g>
<g><path style="opacity:0.01" fill="#197ec2" d="M 230.5,90.5 C 230.897,89.475 231.563,89.3083 232.5,90C 231.906,90.4643 231.239,90.631 230.5,90.5 Z"/></g>
<g><path style="opacity:0.012" fill="#197dc2" d="M 20.5,90.5 C 21.8333,91.1667 21.8333,91.1667 20.5,90.5 Z"/></g>
<g><path style="opacity:0.012" fill="#197dc3" d="M 233.5,90.5 C 234.833,91.1667 234.833,91.1667 233.5,90.5 Z"/></g>
<g><path style="opacity:0.012" fill="#197dc2" d="M 18.5,91.5 C 19.8333,92.1667 19.8333,92.1667 18.5,91.5 Z"/></g>
<g><path style="opacity:0.012" fill="#197dc2" d="M 235.5,91.5 C 236.833,92.1667 236.833,92.1667 235.5,91.5 Z"/></g>
<g><path style="opacity:0.012" fill="#197cc3" d="M 56.5,92.5 C 57.8333,93.1667 57.8333,93.1667 56.5,92.5 Z"/></g>
<g><path style="opacity:0.008" fill="#187dc3" d="M 195.5,93.5 C 196.833,94.1667 196.833,94.1667 195.5,93.5 Z"/></g>
<g><path style="opacity:0.006" fill="#187dc2" d="M 179.5,97.5 C 179.167,97.5 178.833,97.5 178.5,97.5C 178.833,94.8333 179.167,94.8333 179.5,97.5 Z"/></g>
<g><path style="opacity:0.008" fill="#187dc2" d="M 179.5,97.5 C 180.833,98.1667 180.833,98.1667 179.5,97.5 Z"/></g>
<g><path style="opacity:0.012" fill="#197dc3" d="M 180.5,99.5 C 181.833,100.167 181.833,100.167 180.5,99.5 Z"/></g>
<g><path style="opacity:0.012" fill="#197cc3" d="M 181.5,101.5 C 182.833,102.167 182.833,102.167 181.5,101.5 Z"/></g>
<g><path style="opacity:0.004" fill="#187dc2" d="M 103.5,101.5 C 104.167,101.5 104.833,101.5 105.5,101.5C 104.833,102.833 103.833,103.833 102.5,104.5C 102.5,103.833 102.5,103.167 102.5,102.5C 103.167,102.5 103.5,102.167 103.5,101.5 Z"/></g>
<g><path style="opacity:0.008" fill="#187dc2" d="M 72.5,106.5 C 71.8333,106.833 71.1667,107.167 70.5,107.5C 71.032,104.54 71.6987,104.207 72.5,106.5 Z"/></g>
<g><path style="opacity:0.008" fill="#187dc2" d="M 255.5,112.5 C 255.5,113.167 255.5,113.833 255.5,114.5C 255.167,114.5 254.833,114.5 254.5,114.5C 254.328,113.508 254.662,112.842 255.5,112.5 Z"/></g>
<g><path style="opacity:0.004" fill="#187dc2" d="M 254.5,140.5 C 254.833,140.5 255.167,140.5 255.5,140.5C 255.5,141.167 255.5,141.833 255.5,142.5C 255.167,142.5 254.833,142.5 254.5,142.5C 254.5,141.833 254.5,141.167 254.5,140.5 Z"/></g>
<g><path style="opacity:0.008" fill="#187ec2" d="M 253.5,142.5 C 253.833,142.5 254.167,142.5 254.5,142.5C 254.672,143.492 254.338,144.158 253.5,144.5C 253.5,143.833 253.5,143.167 253.5,142.5 Z"/></g>
<g><path style="opacity:0.008" fill="#187cc3" d="M 252.5,144.5 C 252.833,144.5 253.167,144.5 253.5,144.5C 253.672,145.492 253.338,146.158 252.5,146.5C 252.5,145.833 252.5,145.167 252.5,144.5 Z"/></g>
<g><path style="opacity:0.004" fill="#187dc2" d="M 3.5,146.5 C 3.63101,147.239 3.46434,147.906 3,148.5C 2.30831,147.563 2.47498,146.897 3.5,146.5 Z"/></g>
<g><path style="opacity:0.004" fill="#187dc2" d="M 251.5,146.5 C 251.833,146.5 252.167,146.5 252.5,146.5C 252.672,147.492 252.338,148.158 251.5,148.5C 251.5,147.833 251.5,147.167 251.5,146.5 Z"/></g>
<g><path style="opacity:0.008" fill="#187dc3" d="M 183.5,147.5 C 183.833,147.5 184.167,147.5 184.5,147.5C 184.672,148.492 184.338,149.158 183.5,149.5C 183.5,148.833 183.5,148.167 183.5,147.5 Z"/></g>
<g><path style="opacity:0.012" fill="#187cc3" d="M 250.5,148.5 C 250.833,148.5 251.167,148.5 251.5,148.5C 251.315,149.17 250.981,149.17 250.5,148.5 Z"/></g>
<g><path style="opacity:0.012" fill="#197dc2" d="M 69.5,149.5 C 69.8333,149.5 70.1667,149.5 70.5,149.5C 70.3147,150.17 69.9813,150.17 69.5,149.5 Z"/></g>
<g><path style="opacity:0.012" fill="#187dc2" d="M 70.5,147.5 C 71.1667,147.833 71.8333,148.167 72.5,148.5C 72.5912,150.698 71.9245,151.031 70.5,149.5C 70.5,148.833 70.5,148.167 70.5,147.5 Z"/></g>
<g><path style="opacity:0.004" fill="#187dc2" d="M 5.5,149.5 C 5.63101,150.239 5.46434,150.906 5,151.5C 4.30831,150.563 4.47498,149.897 5.5,149.5 Z"/></g>
<g><path style="opacity:0.012" fill="#187dc3" d="M 68.5,150.5 C 68.8333,150.5 69.1667,150.5 69.5,150.5C 69.3147,151.17 68.9813,151.17 68.5,150.5 Z"/></g>
<g><path style="opacity:0.012" fill="#187dc3" d="M 182.5,149.5 C 182.833,149.5 183.167,149.5 183.5,149.5C 183.167,152.167 182.833,152.167 182.5,149.5 Z"/></g>
<g><path style="opacity:0.004" fill="#187dc2" d="M 249.5,149.5 C 249.833,149.5 250.167,149.5 250.5,149.5C 250.672,150.492 250.338,151.158 249.5,151.5C 249.5,150.833 249.5,150.167 249.5,149.5 Z"/></g>
<g><path style="opacity:0.012" fill="#197cc3" d="M 248.5,151.5 C 248.833,151.5 249.167,151.5 249.5,151.5C 249.315,152.17 248.981,152.17 248.5,151.5 Z"/></g>
<g><path style="opacity:0.004" fill="#187dc2" d="M 67.5,151.5 C 67.8333,151.5 68.1667,151.5 68.5,151.5C 68.6716,152.492 68.3382,153.158 67.5,153.5C 67.5,152.833 67.5,152.167 67.5,151.5 Z"/></g>
<g><path style="opacity:0.004" fill="#187dc2" d="M 102.5,150.5 C 103.833,151.167 104.833,152.167 105.5,153.5C 104.833,153.5 104.167,153.5 103.5,153.5C 103.5,152.833 103.167,152.5 102.5,152.5C 102.5,151.833 102.5,151.167 102.5,150.5 Z"/></g>
<g><path style="opacity:0.012" fill="#197cc3" d="M 181.5,152.5 C 182.833,153.167 182.833,153.167 181.5,152.5 Z"/></g>
<g><path style="opacity:0.016" fill="#197cc2" d="M 247.5,152.5 C 247.833,152.5 248.167,152.5 248.5,152.5C 248.315,153.17 247.981,153.17 247.5,152.5 Z"/></g>
<g><path style="opacity:0.008" fill="#197cc3" d="M 66.5,153.5 C 66.8333,153.5 67.1667,153.5 67.5,153.5C 67.3147,154.17 66.9813,154.17 66.5,153.5 Z"/></g>
<g><path style="opacity:0.016" fill="#197dc2" d="M 246.5,153.5 C 246.833,153.5 247.167,153.5 247.5,153.5C 247.315,154.17 246.981,154.17 246.5,153.5 Z"/></g>
<g><path style="opacity:0.012" fill="#187cc2" d="M 65.5,154.5 C 65.8333,154.5 66.1667,154.5 66.5,154.5C 66.3147,155.17 65.9813,155.17 65.5,154.5 Z"/></g>
<g><path style="opacity:0.004" fill="#187dc2" d="M 74.5,153.5 C 74.5,154.167 74.5,154.833 74.5,155.5C 73.1667,154.833 73.1667,154.167 74.5,153.5 Z"/></g>
<g><path style="opacity:0.012" fill="#187dc2" d="M 180.5,154.5 C 181.833,155.167 181.833,155.167 180.5,154.5 Z"/></g>
<g><path style="opacity:0.012" fill="#197dc2" d="M 245.5,154.5 C 245.833,154.5 246.167,154.5 246.5,154.5C 246.315,155.17 245.981,155.17 245.5,154.5 Z"/></g>
<g><path style="opacity:0.012" fill="#197cc2" d="M 64.5,155.5 C 64.8333,155.5 65.1667,155.5 65.5,155.5C 65.3147,156.17 64.9813,156.17 64.5,155.5 Z"/></g>
<g><path style="opacity:0.012" fill="#197dc3" d="M 74.5,155.5 C 74.8333,155.5 75.1667,155.5 75.5,155.5C 75.3147,156.17 74.9813,156.17 74.5,155.5 Z"/></g>
<g><path style="opacity:0.012" fill="#187dc3" d="M 244.5,155.5 C 244.833,155.5 245.167,155.5 245.5,155.5C 245.315,156.17 244.981,156.17 244.5,155.5 Z"/></g>
<g><path style="opacity:0.008" fill="#187dc2" d="M 179.5,156.5 C 180.833,157.167 180.833,157.167 179.5,156.5 Z"/></g>
<g><path style="opacity:0.016" fill="#197dc3" d="M 243.5,156.5 C 243.833,156.5 244.167,156.5 244.5,156.5C 244.315,157.17 243.981,157.17 243.5,156.5 Z"/></g>
<g><path style="opacity:0.016" fill="#187dc2" d="M 242.5,157.5 C 242.833,157.5 243.167,157.5 243.5,157.5C 243.315,158.17 242.981,158.17 242.5,157.5 Z"/></g>
<g><path style="opacity:0.004" fill="#187ec2" d="M 178.5,157.5 C 178.833,157.5 179.167,157.5 179.5,157.5C 179.672,158.492 179.338,159.158 178.5,159.5C 178.5,158.833 178.5,158.167 178.5,157.5 Z"/></g>
<g><path style="opacity:0.012" fill="#187dc2" d="M 241.5,158.5 C 241.833,158.5 242.167,158.5 242.5,158.5C 242.315,159.17 241.981,159.17 241.5,158.5 Z"/></g>
<g><path style="opacity:0.012" fill="#197dc3" d="M 59.5,159.5 C 60.8333,160.167 60.8333,160.167 59.5,159.5 Z"/></g>
<g><path style="opacity:0.012" fill="#197dc2" d="M 177.5,159.5 C 177.833,159.5 178.167,159.5 178.5,159.5C 178.315,160.17 177.981,160.17 177.5,159.5 Z"/></g>
<g><path style="opacity:0.012" fill="#187cc2" d="M 195.5,159.5 C 195.5,159.833 195.5,160.167 195.5,160.5C 194.83,160.019 194.83,159.685 195.5,159.5 Z"/></g>
<g><path style="opacity:0.004" fill="#187dc3" d="M 239.5,160.5 C 239.5,160.167 239.5,159.833 239.5,159.5C 240.167,159.5 240.833,159.5 241.5,159.5C 241.158,160.338 240.492,160.672 239.5,160.5 Z"/></g>
<g><path style="opacity:0.012" fill="#187cc3" d="M 58.5,160.5 C 58.8333,160.5 59.1667,160.5 59.5,160.5C 59.3147,161.17 58.9813,161.17 58.5,160.5 Z"/></g>
<g><path style="opacity:0.004" fill="#197dc2" d="M 176.5,160.5 C 176.833,160.5 177.167,160.5 177.5,160.5C 177.672,161.492 177.338,162.158 176.5,162.5C 176.5,161.833 176.5,161.167 176.5,160.5 Z"/></g>
<g><path style="opacity:0.008" fill="#197dc3" d="M 195.5,160.5 C 196.833,161.167 196.833,161.167 195.5,160.5 Z"/></g>
<g><path style="opacity:0.012" fill="#197dc2" d="M 238.5,160.5 C 238.833,160.5 239.167,160.5 239.5,160.5C 239.315,161.17 238.981,161.17 238.5,160.5 Z"/></g>
<g><path style="opacity:0.006" fill="#187ec2" d="M 18.5,161.5 C 18.5,161.833 18.5,162.167 18.5,162.5C 15.8333,162.167 15.8333,161.833 18.5,161.5 Z"/></g>
<g><path style="opacity:0.012" fill="#197cc2" d="M 56.5,161.5 C 57.8333,162.167 57.8333,162.167 56.5,161.5 Z"/></g>
<g><path style="opacity:0.006" fill="#197dc3" d="M 236.5,162.5 C 236.5,162.167 236.5,161.833 236.5,161.5C 237.167,161.5 237.833,161.5 238.5,161.5C 238.158,162.338 237.492,162.672 236.5,162.5 Z"/></g>
<g><path style="opacity:0.012" fill="#187dc2" d="M 18.5,162.5 C 19.8333,163.167 19.8333,163.167 18.5,162.5 Z"/></g>
<g><path style="opacity:0.008" fill="#197dc3" d="M 54.5,163.5 C 54.5,163.167 54.5,162.833 54.5,162.5C 55.1667,162.5 55.8333,162.5 56.5,162.5C 56.1583,163.338 55.4916,163.672 54.5,163.5 Z"/></g>
<g><path style="opacity:0.012" fill="#197dc3" d="M 175.5,162.5 C 175.833,162.5 176.167,162.5 176.5,162.5C 176.315,163.17 175.981,163.17 175.5,162.5 Z"/></g>
<g><path style="opacity:0.012" fill="#197cc3" d="M 236.5,162.5 C 235.833,163.167 235.833,163.167 236.5,162.5 Z"/></g>
<g><path style="opacity:0.012" fill="#197dc3" d="M 20.5,163.5 C 21.8333,164.167 21.8333,164.167 20.5,163.5 Z"/></g>
<g><path style="opacity:0.008" fill="#197dc3" d="M 52.5,164.5 C 52.5,164.167 52.5,163.833 52.5,163.5C 53.1667,163.5 53.8333,163.5 54.5,163.5C 54.1583,164.338 53.4916,164.672 52.5,164.5 Z"/></g>
<g><path style="opacity:0.012" fill="#187dc2" d="M 174.5,163.5 C 174.833,163.5 175.167,163.5 175.5,163.5C 175.315,164.17 174.981,164.17 174.5,163.5 Z"/></g>
<g><path style="opacity:0.012" fill="#197dc3" d="M 233.5,163.5 C 234.833,164.167 234.833,164.167 233.5,163.5 Z"/></g>
<g><path style="opacity:0.01" fill="#197dc3" d="M 50.5,164.5 C 51.1667,164.5 51.8333,164.5 52.5,164.5C 51.8333,165.833 51.1667,165.833 50.5,164.5 Z"/></g>
<g><path style="opacity:0.004" fill="#187ec3" d="M 173.5,164.5 C 173.833,164.5 174.167,164.5 174.5,164.5C 174.672,165.492 174.338,166.158 173.5,166.5C 173.5,165.833 173.5,165.167 173.5,164.5 Z"/></g>
<g><path style="opacity:0.01" fill="#197ec2" d="M 204.5,164.5 C 204.103,165.525 203.437,165.692 202.5,165C 203.094,164.536 203.761,164.369 204.5,164.5 Z"/></g>
<g><path style="opacity:0.01" fill="#197dc3" d="M 230.5,165.5 C 230.5,165.167 230.5,164.833 230.5,164.5C 233.167,164.833 233.167,165.167 230.5,165.5 Z"/></g>
<g><path style="opacity:0.01" fill="#187ec2" d="M 27.5,165.5 C 26.7494,166.573 25.7494,166.74 24.5,166C 25.448,165.517 26.448,165.351 27.5,165.5 Z"/></g>
<g><path style="opacity:0.012" fill="#187ec2" d="M 47.5,165.5 C 48.2389,165.369 48.9056,165.536 49.5,166C 48.5632,166.692 47.8966,166.525 47.5,165.5 Z"/></g>
<g><path style="opacity:0.012" fill="#187dc2" d="M 207.5,165.5 C 207.103,166.525 206.437,166.692 205.5,166C 206.094,165.536 206.761,165.369 207.5,165.5 Z"/></g>
<g><path style="opacity:0.008" fill="#187dc2" d="M 227.5,165.5 C 228.5,165.5 229.5,165.5 230.5,165.5C 229.5,166.833 228.5,166.833 227.5,165.5 Z"/></g>
<g><path style="opacity:0.012" fill="#187dc2" d="M 28.5,167.5 C 29.2506,166.427 30.2506,166.26 31.5,167C 30.552,167.483 29.552,167.649 28.5,167.5 Z"/></g>
<g><path style="opacity:0.012" fill="#187dc3" d="M 43.5,167.5 C 44.2506,166.427 45.2506,166.26 46.5,167C 45.552,167.483 44.552,167.649 43.5,167.5 Z"/></g>
<g><path style="opacity:0.008" fill="#187cc2" d="M 172.5,166.5 C 172.833,166.5 173.167,166.5 173.5,166.5C 173.315,167.17 172.981,167.17 172.5,166.5 Z"/></g>
<g><path style="opacity:0.009" fill="#187dc2" d="M 208.5,167.5 C 209.251,166.427 210.251,166.26 211.5,167C 210.552,167.483 209.552,167.649 208.5,167.5 Z"/></g>
<g><path style="opacity:0.014" fill="#187dc2" d="M 223.5,167.5 C 224.251,166.427 225.251,166.26 226.5,167C 225.552,167.483 224.552,167.649 223.5,167.5 Z"/></g>
<g><path style="opacity:0.006" fill="#187dc2" d="M 34.5,168.5 C 36.2884,167.378 38.2884,167.211 40.5,168C 38.5273,168.495 36.5273,168.662 34.5,168.5 Z"/></g>
<g><path style="opacity:0.012" fill="#187dc3" d="M 171.5,167.5 C 171.833,167.5 172.167,167.5 172.5,167.5C 172.315,168.17 171.981,168.17 171.5,167.5 Z"/></g>
<g><path style="opacity:0.007" fill="#187dc2" d="M 214.5,168.5 C 216.288,167.378 218.288,167.211 220.5,168C 218.527,168.495 216.527,168.662 214.5,168.5 Z"/></g>
<g><path style="opacity:0.016" fill="#187dc2" d="M 170.5,168.5 C 170.833,168.5 171.167,168.5 171.5,168.5C 171.315,169.17 170.981,169.17 170.5,168.5 Z"/></g>
<g><path style="opacity:0.016" fill="#197dc2" d="M 169.5,169.5 C 169.833,169.5 170.167,169.5 170.5,169.5C 170.315,170.17 169.981,170.17 169.5,169.5 Z"/></g>
<g><path style="opacity:0.016" fill="#187dc3" d="M 168.5,170.5 C 168.833,170.5 169.167,170.5 169.5,170.5C 169.315,171.17 168.981,171.17 168.5,170.5 Z"/></g>
<g><path style="opacity:0.012" fill="#187dc3" d="M 167.5,171.5 C 167.833,171.5 168.167,171.5 168.5,171.5C 168.315,172.17 167.981,172.17 167.5,171.5 Z"/></g>
<g><path style="opacity:0.012" fill="#197dc3" d="M 166.5,172.5 C 166.833,172.5 167.167,172.5 167.5,172.5C 167.315,173.17 166.981,173.17 166.5,172.5 Z"/></g>
<g><path style="opacity:0.008" fill="#197dc2" d="M 165.5,173.5 C 165.833,173.5 166.167,173.5 166.5,173.5C 166.315,174.17 165.981,174.17 165.5,173.5 Z"/></g>
<g><path style="opacity:0.004" fill="#187dc3" d="M 163.5,175.5 C 163.5,175.167 163.5,174.833 163.5,174.5C 164.167,174.5 164.833,174.5 165.5,174.5C 165.158,175.338 164.492,175.672 163.5,175.5 Z"/></g>
<g><path style="opacity:0.012" fill="#187dc2" d="M 162.5,175.5 C 162.833,175.5 163.167,175.5 163.5,175.5C 163.315,176.17 162.981,176.17 162.5,175.5 Z"/></g>
<g><path style="opacity:0.012" fill="#197dc3" d="M 161.5,176.5 C 161.833,176.5 162.167,176.5 162.5,176.5C 162.315,177.17 161.981,177.17 161.5,176.5 Z"/></g>
<g><path style="opacity:0.006" fill="#197cc3" d="M 159.5,178.5 C 159.5,178.167 159.5,177.833 159.5,177.5C 160.167,177.5 160.833,177.5 161.5,177.5C 161.158,178.338 160.492,178.672 159.5,178.5 Z"/></g>
<g><path style="opacity:0.012" fill="#197dc2" d="M 158.5,178.5 C 158.833,178.5 159.167,178.5 159.5,178.5C 159.315,179.17 158.981,179.17 158.5,178.5 Z"/></g>
<g><path style="opacity:0.008" fill="#197dc3" d="M 156.5,180.5 C 156.5,180.167 156.5,179.833 156.5,179.5C 157.167,179.5 157.833,179.5 158.5,179.5C 158.158,180.338 157.492,180.672 156.5,180.5 Z"/></g>
<g><path style="opacity:0.008" fill="#187cc2" d="M 154.5,181.5 C 154.5,181.167 154.5,180.833 154.5,180.5C 155.167,180.5 155.833,180.5 156.5,180.5C 156.158,181.338 155.492,181.672 154.5,181.5 Z"/></g>
<g><path style="opacity:0.006" fill="#197ec2" d="M 152.5,182.5 C 152.5,182.167 152.5,181.833 152.5,181.5C 153.167,181.5 153.833,181.5 154.5,181.5C 154.158,182.338 153.492,182.672 152.5,182.5 Z"/></g>
<g><path style="opacity:0.008" fill="#187dc2" d="M 104.5,182.5 C 104.103,183.525 103.437,183.692 102.5,183C 103.094,182.536 103.761,182.369 104.5,182.5 Z"/></g>
<g><path style="opacity:0.008" fill="#197dc3" d="M 150.5,183.5 C 150.5,183.167 150.5,182.833 150.5,182.5C 151.167,182.5 151.833,182.5 152.5,182.5C 152.158,183.338 151.492,183.672 150.5,183.5 Z"/></g>
<g><path style="opacity:0.012" fill="#197cc3" d="M 105.5,183.5 C 106.833,184.167 106.833,184.167 105.5,183.5 Z"/></g>
<g><path style="opacity:0.008" fill="#187dc2" d="M 148.5,183.5 C 149.167,183.5 149.833,183.5 150.5,183.5C 149.833,184.833 149.167,184.833 148.5,183.5 Z"/></g>
<g><path style="opacity:0.01" fill="#197dc2" d="M 109.5,184.5 C 109.103,185.525 108.437,185.692 107.5,185C 108.094,184.536 108.761,184.369 109.5,184.5 Z"/></g>
<g><path style="opacity:0.012" fill="#187dc2" d="M 145.5,184.5 C 146.239,184.369 146.906,184.536 147.5,185C 146.563,185.692 145.897,185.525 145.5,184.5 Z"/></g>
<g><path style="opacity:0.012" fill="#197dc2" d="M 110.5,186.5 C 110.897,185.475 111.563,185.308 112.5,186C 111.906,186.464 111.239,186.631 110.5,186.5 Z"/></g>
<g><path style="opacity:0.012" fill="#187dc2" d="M 142.5,185.5 C 143.239,185.369 143.906,185.536 144.5,186C 143.563,186.692 142.897,186.525 142.5,185.5 Z"/></g>
<g><path style="opacity:0.009" fill="#187dc2" d="M 117.5,186.5 C 116.399,187.598 115.066,187.765 113.5,187C 114.793,186.51 116.127,186.343 117.5,186.5 Z"/></g>
<g><path style="opacity:0.012" fill="#187dc2" d="M 138.5,187.5 C 139.251,186.427 140.251,186.26 141.5,187C 140.552,187.483 139.552,187.649 138.5,187.5 Z"/></g>
<g><path style="opacity:0.008" fill="#187dc2" d="M 118.5,188.5 C 124.319,187.347 130.319,187.181 136.5,188C 130.509,188.499 124.509,188.666 118.5,188.5 Z"/></g>
</svg>
