<?xml version="1.0" encoding="UTF-8"?>
<!DOCTYPE svg PUBLIC "-//W3C//DTD SVG 1.1//EN" "http://www.w3.org/Graphics/SVG/1.1/DTD/svg11.dtd">
<svg xmlns="http://www.w3.org/2000/svg" version="1.1" width="400px" height="400px" style="shape-rendering:geometricPrecision; text-rendering:geometricPrecision; image-rendering:optimizeQuality; fill-rule:evenodd; clip-rule:evenodd" xmlns:xlink="http://www.w3.org/1999/xlink">
<g><path style="opacity:1" fill="#fefefe" d="M -0.5,-0.5 C 132.833,-0.5 266.167,-0.5 399.5,-0.5C 399.5,132.833 399.5,266.167 399.5,399.5C 266.167,399.5 132.833,399.5 -0.5,399.5C -0.5,266.167 -0.5,132.833 -0.5,-0.5 Z"/></g>
<g><path style="opacity:1" fill="#6cb33e" d="M 141.5,78.5 C 180.168,78.3333 218.835,78.5 257.5,79C 265.3,81.1327 271.8,85.2994 277,91.5C 295.667,124.167 314.333,156.833 333,189.5C 333.884,196.582 333.551,203.582 332,210.5C 313.667,242.5 295.333,274.5 277,306.5C 272.269,312.783 266.102,316.95 258.5,319C 217.774,319.983 177.107,319.649 136.5,318C 129.243,315.128 123.743,310.295 120,303.5C 102.667,273.5 85.3333,243.5 68,213.5C 63.9167,204.603 63.5834,195.603 67,186.5C 85.5859,154.997 103.919,123.33 122,91.5C 127.218,84.9926 133.718,80.6593 141.5,78.5 Z"/></g>
<g><path style="opacity:1" fill="#fbfdfa" d="M 194.5,118.5 C 200.734,117.373 205.568,119.373 209,124.5C 209.667,149.167 209.667,173.833 209,198.5C 205.348,204.748 200.181,206.581 193.5,204C 190.894,202.062 189.061,199.562 188,196.5C 187.333,173.167 187.333,149.833 188,126.5C 189.305,123.039 191.471,120.372 194.5,118.5 Z"/></g>
<g><path style="opacity:1" fill="#fcfdfc" d="M 156.5,133.5 C 167.379,132.534 171.546,137.2 169,147.5C 141.595,170.088 136.928,196.755 155,227.5C 172.488,247.994 193.988,253.828 219.5,245C 244.83,232.851 255.997,212.684 253,184.5C 249.585,169.994 241.918,158.327 230,149.5C 225.188,137.962 229.022,132.795 241.5,134C 271.252,157.607 279.752,187.441 267,223.5C 250.767,255.541 224.6,270.374 188.5,268C 152.639,260.468 131.473,238.634 125,202.5C 123.091,173.662 133.591,150.662 156.5,133.5 Z"/></g>
</svg>
