<?xml version="1.0" standalone="no"?>
<!DOCTYPE svg PUBLIC "-//W3C//DTD SVG 20010904//EN"
 "http://www.w3.org/TR/2001/REC-SVG-20010904/DTD/svg10.dtd">
<svg version="1.0" xmlns="http://www.w3.org/2000/svg"
 width="384.000000pt" height="384.000000pt" viewBox="0 0 384.000000 384.000000"
 preserveAspectRatio="xMidYMid meet">

<g transform="translate(0.000000,384.000000) scale(0.100000,-0.100000)"
fill="#000000" stroke="none">
<path d="M1429 2750 c-129 -72 -240 -137 -248 -145 -17 -17 -18 -60 -1 -80 7
-8 85 -55 175 -105 90 -50 168 -97 174 -104 15 -17 -7 -33 -139 -104 -87 -46
-99 -50 -146 -45 -117 12 -199 -85 -145 -173 38 -62 136 -82 211 -44 38 19 70
62 70 94 0 8 66 51 158 102 211 117 212 118 212 158 0 19 -7 39 -17 48 -10 8
-88 54 -175 102 -86 48 -161 93 -167 100 -9 11 -6 18 16 33 51 35 270 153 284
153 27 -1 754 -415 757 -431 2 -12 -144 -98 -570 -336 l-573 -320 -65 1 c-51
1 -73 -4 -101 -21 -83 -52 -77 -153 11 -198 17 -9 56 -15 92 -15 l62 0 403
-225 c221 -124 415 -228 430 -231 23 -4 74 21 263 126 129 72 242 138 252 147
23 21 23 65 1 85 -10 9 -88 55 -173 103 -167 93 -190 109 -175 124 6 5 59 37
120 71 104 58 112 61 160 55 63 -8 130 23 159 73 16 29 17 39 7 72 -18 61 -60
85 -148 85 -66 0 -74 -2 -103 -30 -17 -16 -34 -43 -38 -60 -7 -26 -30 -42
-188 -131 -193 -109 -213 -128 -182 -176 9 -13 92 -66 187 -118 103 -57 171
-101 171 -110 0 -22 -292 -182 -316 -173 -35 13 -729 404 -744 418 -9 9 -11
18 -5 24 6 4 265 150 577 324 l567 316 64 0 c76 -1 119 18 147 64 25 40 25 64
0 104 -27 46 -73 66 -150 68 l-65 1 -405 227 c-238 133 -415 227 -430 227 -15
0 -129 -57 -261 -130z"/>
</g>
</svg>
