<?xml version="1.0" encoding="utf-8"?>
<!-- Generator: Adobe Illustrator 21.1.0, SVG Export Plug-In . SVG Version: 6.00 Build 0)  -->
<svg version="1.1" id="Layer_1" xmlns="http://www.w3.org/2000/svg" xmlns:xlink="http://www.w3.org/1999/xlink" x="0px" y="0px"
	 viewBox="0 0 512 512" style="enable-background:new 0 0 512 512;" xml:space="preserve">
<style type="text/css">
	.st0{fill:#FF0099;}
</style>
<g>
	<path class="st0" d="M425.6,313.5c0,61.6-49.9,111.5-111.5,111.5H197.9c-61.6,0-111.5-49.9-111.5-111.5v-39.8H19v45.7
		C19,414.7,96.3,492,191.6,492h128.8c95.3,0,172.6-77.3,172.6-172.6v-45.7h-67.4V313.5z"/>
	<path class="st0" d="M86.4,199.5C86.4,137.9,136.3,88,197.9,88h116.2c61.6,0,111.5,49.9,111.5,111.5v41H493v-46.9
		C493,98.3,415.7,21,320.4,21H191.6C96.3,21,19,98.3,19,193.6v46.9h67.4V199.5z"/>
	<path class="st0" d="M323,122.6v186.6c0,8.9-7.2,16.1-16.1,16.1c-8.9,0-16.1-7.2-16.1-16.1v-68.7h-69.6v68.7
		c0,8.9-7.2,16.1-16.1,16.1h0c-8.9,0-16.1-7.2-16.1-16.1V122.6c-39.1,6.5-68.9,40.4-68.9,81.3v105.2c0,45.5,36.9,82.4,82.4,82.4h5.8
		c11.2,0,21.8-2.2,31.5-6.3c5.7-2.4,11.1-5.4,16.1-8.9c5,3.5,10.4,6.5,16.1,8.9c9.7,4,20.4,6.3,31.5,6.3h5.8
		c45.5,0,82.4-36.9,82.4-82.4V203.9C391.9,163,362.1,129.1,323,122.6z"/>
</g>
</svg>
