<?xml version="1.0" encoding="UTF-8"?>
<!DOCTYPE svg PUBLIC "-//W3C//DTD SVG 1.1//EN" "http://www.w3.org/Graphics/SVG/1.1/DTD/svg11.dtd">
<svg xmlns="http://www.w3.org/2000/svg" version="1.1" width="220px" height="219px" style="shape-rendering:geometricPrecision; text-rendering:geometricPrecision; image-rendering:optimizeQuality; fill-rule:evenodd; clip-rule:evenodd" xmlns:xlink="http://www.w3.org/1999/xlink">
<g><path style="opacity:0.935" fill="#fe0098" d="M 77.5,0.5 C 101.529,0.0956462 125.529,0.595646 149.5,2C 190.278,10.4207 213.111,35.254 218,76.5C 218.5,85.1603 218.666,93.8269 218.5,102.5C 207.5,102.5 196.5,102.5 185.5,102.5C 186.098,90.7071 185.265,79.0404 183,67.5C 177.222,50.0553 165.389,39.2219 147.5,35C 134.712,33.8833 121.878,33.3833 109,33.5C 55.7839,26.2261 30.6172,49.2261 33.5,102.5C 22.5,102.5 11.5,102.5 0.5,102.5C -2.85648,71.0388 6.14352,43.8721 27.5,21C 42.0534,8.88614 58.7201,2.05281 77.5,0.5 Z"/></g>
<g><path style="opacity:0.939" fill="#fe0098" d="M 76.5,47.5 C 77.5,47.5 78.5,47.5 79.5,47.5C 79.3334,76.5019 79.5,105.502 80,134.5C 81.0183,137.683 83.185,139.016 86.5,138.5C 89.815,139.016 91.9817,137.683 93,134.5C 93.4999,123.172 93.6665,111.838 93.5,100.5C 104.167,100.5 114.833,100.5 125.5,100.5C 125.22,112.028 125.553,123.528 126.5,135C 127.376,137.889 129.376,139.056 132.5,138.5C 135.815,139.016 137.982,137.683 139,134.5C 139.5,105.502 139.667,76.5019 139.5,47.5C 159.331,51.8359 170.164,64.1692 172,84.5C 172.667,101.167 172.667,117.833 172,134.5C 166.886,163.493 149.719,175.326 120.5,170C 116.593,168.978 112.926,167.478 109.5,165.5C 93.2143,173.884 77.2143,173.384 61.5,164C 52.8246,156.483 47.9913,146.983 47,135.5C 46.0887,115.466 46.422,95.4663 48,75.5C 52.7603,61.2388 62.2603,51.9055 76.5,47.5 Z"/></g>
<g><path style="opacity:0.933" fill="#fe0098" d="M 1.5,115.5 C 12.1667,115.5 22.8333,115.5 33.5,115.5C 31.4849,132.413 34.3183,148.413 42,163.5C 50.3561,174.843 61.5227,181.676 75.5,184C 98.1667,184.667 120.833,184.667 143.5,184C 164.569,180.266 178.069,168.099 184,147.5C 185.375,136.889 185.875,126.222 185.5,115.5C 196.5,115.5 207.5,115.5 218.5,115.5C 220.726,137.674 216.893,158.674 207,178.5C 190.794,201.322 168.627,214.155 140.5,217C 119.5,217.667 98.5,217.667 77.5,217C 41.0399,213.867 16.8733,195.033 5,160.5C 1.02862,145.657 -0.138051,130.657 1.5,115.5 Z"/></g>
</svg>
